<!-- Generated by IcoMoon.io -->
<svg version="1.1" xmlns="http://www.w3.org/2000/svg" width="1024" height="1024" viewBox="0 0 1024 1024">
<title></title>
<g id="icomoon-ignore">
</g>
<path fill="#000" d="M901.632 131.584l-452.608 260.096-381.952-141.312 425.984-200.704zM54.784 291.328l380.928 140.288 112.64 542.72-360.448-210.944zM472.576 425.472l453.632-259.072 43.008 499.712-382.976 302.080zM888.32 487.936h-1.024v-8.192q-3.072-19.456-16.384-27.648-3.072-3.072-5.12-3.072l-8.192-87.040v-5.12q-5.12-23.552-17.408-31.744-10.24-7.168-19.456-5.12-5.12 1.024-15.36 5.12l-250.88 144.384 78.848 377.856 228.352-180.224q16.384-13.312 25.6-38.912 8.192-22.528 8.192-45.056 0-2.048-0.512-4.096t-0.512-4.096zM813.568 552.448q1.024-1.024 5.12-3.072 3.072 0 7.168 2.048 6.144 6.144 7.168 11.264v3.072l1.024 12.288q1.024 7.168-3.072 22.528-2.048 9.216-10.24 15.36l-147.456 107.52-38.912-211.968 144.384-88.064 2.048-1.024t3.072-1.024q6.144 0 8.192 2.048 5.12 3.072 7.168 12.288v2.048l1.024 13.312q2.048 12.288-3.072 20.48-2.048 11.264-10.24 15.36l-131.072 84.992q12.288 27.648 30.72 67.584z"></path>
</svg>
