<!-- Generated by IcoMoon.io -->
<svg version="1.1" xmlns="http://www.w3.org/2000/svg" width="1024" height="1024" viewBox="0 0 1024 1024">
<title></title>
<g id="icomoon-ignore">
</g>
<path fill="#000" d="M733.696 612.352l118.784-101.376 11.264 46.080-27.648 119.808-104.448 161.792-2.048 134.144h-384l-6.144-237.568-208.896-254.976 129.024-274.432 286.72 105.472-49.152 88.064-28.672 4.096-104.448-21.504-25.6 62.464 161.792 1.024 134.144 88.064 90.112 89.088zM507.392 107.52l-65.536 133.12-116.736-50.176 64.512-139.264zM577.024 289.792l-104.448-41.984 73.728-135.168 123.904 67.584-98.304 155.648-17.408-8.192zM634.368 485.376l-89.088-59.392 154.624-220.16 95.232 74.752zM727.552 576.512l-65.536-67.584q154.624-179.2 155.648-181.248l75.776 75.776z"></path>
</svg>
