<!-- Generated by IcoMoon.io -->
<svg version="1.1" xmlns="http://www.w3.org/2000/svg" width="1024" height="1024" viewBox="0 0 1024 1024">
<title></title>
<g id="icomoon-ignore">
</g>
<path fill="#000" d="M490.496 222.208v239.616l-206.848 119.808-207.872-120.832 1.024-238.592 206.848-119.808zM741.376 102.4l206.848 119.808v239.616l-206.848 119.808-207.872-120.832 1.024-238.592zM306.176 614.4l206.848-119.808 206.848 119.808-1.024 238.592-205.824 119.808-207.872-119.808zM755.712 831.488v-217.088l45.056-25.6v217.088zM224.256 805.888v-217.088l45.056 25.6v218.112zM698.368 77.824l-185.344 108.544-185.344-108.544 45.056-25.6 140.288 79.872 139.264-80.896z"></path>
</svg>
