<!-- Generated by IcoMoon.io -->
<svg version="1.1" xmlns="http://www.w3.org/2000/svg" width="1024" height="1024" viewBox="0 0 1024 1024">
<title></title>
<g id="icomoon-ignore">
</g>
<path fill="#000" d="M54.784 291.328l380.928 141.312 112.64 541.696-360.448-209.92zM901.632 132.608l-452.608 259.072-381.952-140.288 427.008-201.728zM473.6 426.496l453.632-259.072 41.984 498.688-382.976 302.080zM685.568 715.264q-6.144 1.024-10.752-4.608t-5.632-11.776v-1.024l-29.696-158.72v-7.168q0-21.504 14.336-30.72l223.232-137.216-1.024-12.288q0-3.072-1.024-5.12-5.12-35.84-30.72-35.84h-4.096q-7.168 0-15.36 5.12l-223.232 128q-14.336 8.192-24.576 28.672t-10.24 43.008q0 10.24 1.024 15.36v2.048l51.2 242.688q9.216 48.128 35.84 48.128h4.096q3.072 0 14.336-7.168l187.392-148.48q14.336-11.264 24.576-35.84t10.24-49.152v-8.192l-12.288-149.504-192.512 124.928q25.6 58.368 29.696 67.584l109.568-76.8 5.12 38.912v3.072q0 22.528-14.336 32.768l-131.072 96.256q-3.072 3.072-4.096 3.072z"></path>
</svg>
