<!-- Generated by IcoMoon.io -->
<svg version="1.1" xmlns="http://www.w3.org/2000/svg" width="1024" height="1024" viewBox="0 0 1024 1024">
<title></title>
<g id="icomoon-ignore">
</g>
<path fill="#000" d="M326.656 541.696h-221.184q-44.032-82.944-50.176-162.816v-52.224q8.192-109.568 69.632-175.104t136.192-72.704q14.336-2.048 40.96-2.048 71.68 0 116.736 27.136t93.184 84.48q49.152-58.368 93.696-84.992t116.224-26.624q26.624 0 41.984 2.048 73.728 7.168 135.168 72.192t69.632 175.616v52.224q-6.144 79.872-50.176 162.816h-220.16l-95.232-335.872-93.184 440.32-102.4-317.44zM666.624 583.68h228.352l-30.72 41.984h1.024q-115.712 155.648-353.28 321.536-238.592-166.912-352.256-321.536h-5.12l-23.552-41.984h224.256l49.152-130.048 114.688 354.304 90.112-429.056z"></path>
</svg>
