<!-- Generated by IcoMoon.io -->
<svg version="1.1" xmlns="http://www.w3.org/2000/svg" width="1024" height="1024" viewBox="0 0 1024 1024">
<title></title>
<g id="icomoon-ignore">
</g>
<path fill="#000" d="M901.632 131.584l-452.608 260.096-381.952-141.312 425.984-200.704zM54.784 291.328l380.928 140.288 112.64 542.72-360.448-210.944zM684.544 715.264q-6.144 1.024-10.24-4.608t-5.12-11.776l-1.024-1.024-28.672-159.744v-1.024q-1.024-2.048-1.024-7.168 0-19.456 14.336-28.672l143.36-89.088 2.048-1.024t3.072-1.024q6.144-1.024 10.24 3.584t5.12 10.752l1.024 2.048 16.384 151.552v6.144q0 24.576-13.312 31.744l-130.048 96.256zM472.576 425.472l453.632-259.072 43.008 499.712-382.976 302.080zM876.032 350.72q0-1.024-0.512-2.56t-0.512-2.56q-5.12-35.84-31.744-35.84h-5.12q-7.168 2.048-14.336 6.144l-222.208 126.976q-15.36 8.192-25.088 28.672t-9.728 44.032q0 10.24 1.024 15.36 0 4.096 1.024 6.144l50.176 241.664q10.24 45.056 35.84 45.056h3.072q7.168-2.048 15.36-7.168l187.392-149.504q14.336-10.24 24.576-33.792t10.24-47.104q0-2.048-0.512-5.632t-0.512-5.632z"></path>
</svg>
