<!-- Generated by IcoMoon.io -->
<svg version="1.1" xmlns="http://www.w3.org/2000/svg" width="1024" height="1024" viewBox="0 0 1024 1024">
<title></title>
<g id="icomoon-ignore">
</g>
<path fill="#000" d="M901.632 131.584l-452.608 260.096-381.952-141.312 425.984-200.704zM54.784 291.328l380.928 140.288 112.64 542.72-360.448-210.944zM473.6 425.472l452.608-259.072 43.008 499.712-382.976 302.080zM822.784 588.288q5.12-1.024 9.216 3.072t5.12 10.24v2.048l8.192 76.8 55.296-44.032-8.192-87.040v-3.072q-3.072-18.432-22.528-32.768 14.336-40.96 14.336-59.392v-4.096l-8.192-99.328q0-1.024-0.512-2.56t-0.512-2.56q-5.12-35.84-31.744-35.84h-5.12q-8.192 2.048-14.336 6.144l-269.312 153.6 78.848 377.856 55.296-44.032-54.272-291.84 161.792-99.328 2.048-1.024t3.072-1.024q6.144-1.024 10.24 3.584t5.12 10.752l1.024 2.048 5.12 51.2v5.12q0 21.504-14.336 30.72l-146.432 99.328q13.312 26.624 31.744 66.56l123.904-89.088 2.048-1.024q2.048-1.024 3.072-1.024z"></path>
</svg>
